<svg xmlns="http://www.w3.org/2000/svg" viewBox="0 0 250 250"><defs><style>.cls-1{fill:#2f333f;}.cls-2{fill:#36b4e8;}.cls-3,.cls-4{fill:none;stroke:#34b5e8;stroke-miterlimit:10;stroke-width:3.35px;}.cls-4{stroke-linecap:round;}</style></defs><title>DSN18_0128_Icon_Corporate Performance Management</title><g id="BG"><rect class="cls-1" width="250" height="250"/><path class="cls-2" d="M18.49,202.06l-1.36,1.58a3.83,3.83,0,0,0-2.56-1c-1.9,0-3.38,1.4-3.38,5.14s1.44,5.11,3.42,5.11a4.5,4.5,0,0,0,2.8-1.16l1.24,1.6A5.82,5.82,0,0,1,14.49,215c-3.58,0-6.08-2.54-6.08-7.23s2.64-7.18,6-7.18A5.78,5.78,0,0,1,18.49,202.06Z"/><path class="cls-2" d="M31.06,207.8c0,4.55-2.34,7.21-6,7.21S19,212.43,19,207.82s2.36-7.22,6.06-7.22S31.06,203.18,31.06,207.8Zm-9.31,0C21.75,211.53,23,213,25,213s3.25-1.46,3.25-5.19-1.18-5.18-3.25-5.18S21.75,204.1,21.75,207.82Z"/><path class="cls-2" d="M37.46,209.17H35.78v5.54H33.14V200.9h4.12c3.62,0,5.48,1.32,5.48,4.06,0,1.9-.92,3-2.8,3.74l3.62,6h-3Zm-1.68-1.89h1.64c1.64,0,2.56-.66,2.56-2.32,0-1.5-.86-2.14-2.78-2.14H35.78Z"/><path class="cls-2" d="M54.64,205.3c0,3.18-2.3,4.59-5.42,4.59H47.6v4.82H45V200.9H49C52.52,200.9,54.64,202.32,54.64,205.3Zm-2.76,0c0-1.74-1.06-2.46-2.86-2.46H47.6v5.08H49C50.78,207.92,51.88,207.32,51.88,205.3Z"/><path class="cls-2" d="M67.71,207.8c0,4.55-2.33,7.21-6,7.21s-6.06-2.58-6.06-7.19,2.36-7.22,6.06-7.22S67.71,203.18,67.71,207.8Zm-9.31,0c0,3.71,1.26,5.17,3.28,5.17s3.25-1.46,3.25-5.19-1.17-5.18-3.25-5.18S58.4,204.1,58.4,207.82Z"/><path class="cls-2" d="M74.11,209.17H72.44v5.54H69.8V200.9h4.11c3.62,0,5.48,1.32,5.48,4.06,0,1.9-.92,3-2.8,3.74l3.62,6h-3Zm-1.67-1.89h1.63c1.64,0,2.56-.66,2.56-2.32,0-1.5-.86-2.14-2.78-2.14H72.44Z"/><path class="cls-2" d="M88.07,211.51H83.49l-.86,3.2H79.89l4.3-13.81h3.26l4.28,13.81h-2.8Zm-.52-2-1.78-6.59L84,209.51Z"/><path class="cls-2" d="M100.47,203h-3.6v11.71H94.21V203H90.49v-2.1h10.26Z"/><path class="cls-2" d="M109.81,202.86h-5.1v3.86h4.44v1.95h-4.44v4.06h5.46v2h-8.1V200.9h8Z"/><path class="cls-2" d="M126.54,205.3c0,3.18-2.3,4.59-5.42,4.59h-1.61v4.82h-2.64V200.9h4.07C124.42,200.9,126.54,202.32,126.54,205.3Zm-2.76,0c0-1.74-1.06-2.46-2.86-2.46h-1.41v5.08h1.41C122.68,207.92,123.78,207.32,123.78,205.3Z"/><path class="cls-2" d="M136,202.86h-5.1v3.86h4.44v1.95h-4.44v4.06h5.46v2h-8.1V200.9h8Z"/><path class="cls-2" d="M142.8,209.17h-1.68v5.54h-2.64V200.9h4.12c3.62,0,5.48,1.32,5.48,4.06,0,1.9-.92,3-2.8,3.74l3.62,6h-3Zm-1.68-1.89h1.64c1.64,0,2.56-.66,2.56-2.32,0-1.5-.86-2.14-2.78-2.14h-1.42Z"/><path class="cls-2" d="M157.84,202.86h-4.9V207h4.26v2h-4.26v5.75H150.3V200.9h7.82Z"/><path class="cls-2" d="M171,207.8c0,4.55-2.34,7.21-6,7.21s-6.05-2.58-6.05-7.19,2.36-7.22,6.05-7.22S171,203.18,171,207.8Zm-9.31,0c0,3.71,1.26,5.17,3.27,5.17s3.26-1.46,3.26-5.19-1.18-5.18-3.26-5.18S161.7,204.1,161.7,207.82Z"/><path class="cls-2" d="M177.41,209.17h-1.68v5.54h-2.64V200.9h4.12c3.62,0,5.48,1.32,5.48,4.06,0,1.9-.92,3-2.8,3.74l3.62,6h-3Zm-1.68-1.89h1.64c1.64,0,2.56-.66,2.56-2.32,0-1.5-.86-2.14-2.78-2.14h-1.42Z"/><path class="cls-2" d="M198,214.71h-2.57l-.36-5.77c-.12-2-.22-4.18-.18-5.64l-2.52,9.91h-2.5l-2.68-9.93a55.19,55.19,0,0,1-.08,5.73l-.34,5.7h-2.56l1.1-13.81h3.4l2.46,9.67,2.32-9.67h3.43Z"/><path class="cls-2" d="M206.84,211.51h-4.57l-.86,3.2h-2.74L203,200.9h3.25l4.28,13.81h-2.8Zm-.52-2-1.77-6.59-1.76,6.59Z"/><path class="cls-2" d="M221.84,214.71h-3.42l-4.74-11.17a43.92,43.92,0,0,1,.36,5.54v5.63h-2.4V200.9H215l4.82,11.19a34.17,34.17,0,0,1-.36-4.71V200.9h2.4Z"/><path class="cls-2" d="M234,202.06l-1.36,1.58a3.83,3.83,0,0,0-2.56-1c-1.9,0-3.38,1.4-3.38,5.14s1.44,5.11,3.42,5.11a4.5,4.5,0,0,0,2.8-1.16l1.24,1.6A5.82,5.82,0,0,1,230,215c-3.58,0-6.08-2.54-6.08-7.23s2.64-7.18,6-7.18A5.78,5.78,0,0,1,234,202.06Z"/><path class="cls-2" d="M243.38,202.86h-5.1v3.86h4.44v1.95h-4.44v4.06h5.46v2h-8.1V200.9h8Z"/><path class="cls-2" d="M77.85,238.71H75.27l-.36-5.78c-.12-2-.22-4.18-.18-5.64l-2.52,9.92h-2.5L67,227.27A55.41,55.41,0,0,1,67,233l-.34,5.7H64.06l1.1-13.82h3.4L71,234.57l2.32-9.68h3.44Z"/><path class="cls-2" d="M87.09,235.51H82.51l-.86,3.2H78.92l4.29-13.82h3.26l4.28,13.82H88Zm-.52-2-1.78-6.6L83,233.51Z"/><path class="cls-2" d="M102.49,238.71H99.07l-4.74-11.18a43.92,43.92,0,0,1,.36,5.54v5.64h-2.4V224.89h3.34l4.82,11.2a34.2,34.2,0,0,1-.36-4.72v-6.48h2.4Z"/><path class="cls-2" d="M112.19,235.51h-4.58l-.86,3.2H104l4.3-13.82h3.26l4.27,13.82h-2.79Zm-.52-2-1.78-6.6-1.76,6.6Z"/><path class="cls-2" d="M126.76,226.21l-1.44,1.5a4.12,4.12,0,0,0-2.88-1.12c-2,0-3.63,1.48-3.63,5.2s1.11,5.2,3.27,5.2a4.38,4.38,0,0,0,2.2-.54v-3.6H122.2l-.28-2h5v6.76A9.06,9.06,0,0,1,122,239c-3.83,0-6-2.48-6-7.22s2.89-7.2,6.29-7.2A6.34,6.34,0,0,1,126.76,226.21Z"/><path class="cls-2" d="M137.28,226.85h-5.1v3.86h4.44v2h-4.44v4.06h5.46v2h-8.1V224.89h8Z"/><path class="cls-2" d="M153.23,238.71h-2.57l-.36-5.78c-.12-2-.22-4.18-.18-5.64l-2.52,9.92h-2.5l-2.68-9.94a55.41,55.41,0,0,1-.08,5.74l-.34,5.7h-2.56l1.1-13.82h3.4l2.46,9.68,2.32-9.68h3.43Z"/><path class="cls-2" d="M163.75,226.85h-5.09v3.86h4.43v2h-4.43v4.06h5.45v2H156V224.89h8Z"/><path class="cls-2" d="M176.81,238.71h-3.42l-4.74-11.18a43.92,43.92,0,0,1,.36,5.54v5.64h-2.39V224.89H170l4.82,11.2a34.2,34.2,0,0,1-.36-4.72v-6.48h2.4Z"/><path class="cls-2" d="M188.65,227h-3.6v11.72h-2.66V227h-3.72v-2.1h10.26Z"/></g><g id="Layer_1" data-name="Layer 1"><circle class="cls-3" cx="121.48" cy="105.5" r="58.5"/><line class="cls-4" x1="121.48" y1="56.33" x2="121.48" y2="69.52"/><line class="cls-4" x1="96.75" y1="63.55" x2="103.41" y2="74.93"/><line class="cls-4" x1="79.49" y1="81.47" x2="90.87" y2="88.14"/><line class="cls-4" x1="73.2" y1="105.66" x2="86.39" y2="105.88"/><line class="cls-4" x1="79.68" y1="129.94" x2="91.26" y2="123.62"/><line class="cls-4" x1="146.75" y1="62.76" x2="140.01" y2="74.1"/><path class="cls-3" d="M187,105.44s-59.35,10.26-65,10.26a10.26,10.26,0,1,1,0-20.52C127.67,95.18,187,105.44,187,105.44Z"/><line class="cls-4" x1="115.62" y1="137.37" x2="135.61" y2="137.37"/><line class="cls-4" x1="105.88" y1="137.37" x2="108.6" y2="137.37"/><path class="cls-4" d="M168.18,109.34a49.34,49.34,0,0,1-5.86,20.39l-8.07-4.82"/><path class="cls-4" d="M154.67,86.49l7.51-4.13a49.19,49.19,0,0,1,5.91,19.41"/><circle class="cls-3" cx="121.48" cy="105.5" r="58.5"/><line class="cls-4" x1="121.48" y1="56.33" x2="121.48" y2="69.52"/><line class="cls-4" x1="96.75" y1="63.55" x2="103.41" y2="74.93"/><line class="cls-4" x1="79.49" y1="81.47" x2="90.87" y2="88.14"/><line class="cls-4" x1="73.2" y1="105.66" x2="86.39" y2="105.88"/><line class="cls-4" x1="79.68" y1="129.94" x2="91.26" y2="123.62"/><line class="cls-4" x1="146.75" y1="62.76" x2="140.01" y2="74.1"/><path class="cls-3" d="M187,105.44s-59.35,10.26-65,10.26a10.26,10.26,0,1,1,0-20.52C127.67,95.18,187,105.44,187,105.44Z"/><line class="cls-4" x1="115.62" y1="137.37" x2="135.61" y2="137.37"/><line class="cls-4" x1="105.88" y1="137.37" x2="108.6" y2="137.37"/><path class="cls-4" d="M168.18,109.34a49.34,49.34,0,0,1-5.86,20.39l-8.07-4.82"/><path class="cls-4" d="M154.67,86.49l7.51-4.13a49.19,49.19,0,0,1,5.91,19.41"/></g></svg>